HIERARCHY
ROOT Hips
{
 OFFSET 0.000000 0.000000 0.000000
 CHANNELS 6 Xposition Yposition Zposition Yrotation Xrotation Zrotation
 JOINT Chest
 {
  OFFSET 0.000000 8.841881 -6.654894
  CHANNELS 3 Yrotation Xrotation Zrotation
  JOINT Chest2
  {
   OFFSET 0.000000 7.072353 0.028336
   CHANNELS 3 Yrotation Xrotation Zrotation
   JOINT Chest3
   {
    OFFSET 0.000000 10.125157 -0.014641
    CHANNELS 3 Yrotation Xrotation Zrotation
    JOINT Chest4
    {
     OFFSET 0.000000 10.441534 -0.016102
     CHANNELS 3 Yrotation Xrotation Zrotation
     JOINT Neck
     {
      OFFSET 0.000000 16.849355 0.013667
      CHANNELS 3 Yrotation Xrotation Zrotation
      JOINT Head
      {
       OFFSET 0.000000 10.107081 0.000000
       CHANNELS 3 Yrotation Xrotation Zrotation
       End Site
       {
        OFFSET 0.000000 15.162723 0.000000
       }
      }
     }
     JOINT RightCollar
     {
      OFFSET -2.775264 10.553866 0.006834
      CHANNELS 3 Yrotation Xrotation Zrotation
      JOINT RightShoulder
      {
       OFFSET -16.020521 0.000000 0.000000
       CHANNELS 3 Yrotation Xrotation Zrotation
       JOINT RightElbow
       {
        OFFSET -23.902096 0.000000 0.000000
        CHANNELS 3 Yrotation Xrotation Zrotation
        JOINT RightWrist
        {
         OFFSET -23.631001 0.000000 -0.000566
         CHANNELS 3 Yrotation Xrotation Zrotation
         End Site
         {
          OFFSET -18.828190 0.690323 0.103033
         }
        }
       }
      }
     }
     JOINT LeftCollar
     {
      OFFSET 2.775264 10.553866 0.006834
      CHANNELS 3 Yrotation Xrotation Zrotation
      JOINT LeftShoulder
      {
       OFFSET 16.020521 0.000000 0.000000
       CHANNELS 3 Yrotation Xrotation Zrotation
       JOINT LeftElbow
       {
        OFFSET 23.902096 0.000000 0.000000
        CHANNELS 3 Yrotation Xrotation Zrotation
        JOINT LeftWrist
        {
         OFFSET 23.631001 0.000000 -0.000566
         CHANNELS 3 Yrotation Xrotation Zrotation
         End Site
         {
          OFFSET 18.828190 0.690323 0.103033
         }
        }
       }
      }
     }
    }
   }
  }
 }
 JOINT RightHip
 {
  OFFSET -9.646452 0.046004 -0.007286
  CHANNELS 3 Yrotation Xrotation Zrotation
  JOINT RightKnee
  {
   OFFSET 0.000000 -48.923989 0.009793
   CHANNELS 3 Yrotation Xrotation Zrotation
   JOINT RightAnkle
   {
    OFFSET 0.000000 -37.831989 0.111451
    CHANNELS 3 Yrotation Xrotation Zrotation
    JOINT RightToe
    {
     OFFSET 0.000000 -8.084683 17.519885
     CHANNELS 3 Yrotation Xrotation Zrotation
     End Site
     {
      OFFSET 0.000000 -1.047441 5.170765
     }
    }
   }
  }
 }
 JOINT LeftHip
 {
  OFFSET 9.646452 0.044016 -0.006971
  CHANNELS 3 Yrotation Xrotation Zrotation
  JOINT LeftKnee
  {
   OFFSET 0.000000 -48.923989 0.009793
   CHANNELS 3 Yrotation Xrotation Zrotation
   JOINT LeftAnkle
   {
    OFFSET 0.000000 -37.831989 0.111451
    CHANNELS 3 Yrotation Xrotation Zrotation
    JOINT LeftToe
    {
     OFFSET 0.000000 -8.084683 17.519885
     CHANNELS 3 Yrotation Xrotation Zrotation
     End Site
     {
      OFFSET 0.000000 -1.047441 5.170765
     }
    }
   }
  }
 }
}
MOTION
Frames: 11
Frame Time: 0.004167
11.425446 87.071272 85.593572 13.654667 22.682360 -1.482149 0.090567 7.561618 -0.840589 0.138023 -9.556670 -0.407894 0.095354 2.140813 -0.265847 0.015294 9.927859 -0.077688 -2.151628 -4.806727 0.394743 -4.039585 -8.912398 0.881111 -4.741374 -7.353196 2.977309 -2.036567 -15.749470 54.205508 44.145021 -9.332844 8.890663 3.130881 3.203761 -4.483346 5.628855 -8.354023 -2.837437 15.578361 9.017376 -49.642941 -24.599040 7.573949 -14.551267 -6.751392 9.680884 -8.791286 -6.270933 -13.548245 -0.663954 -10.084538 65.080209 -1.075616 -13.889452 0.588372 3.262587 -0.328883 1.244674 -0.921334 11.899398 -36.124974 -5.497000 -6.415748 57.472291 -5.709801 17.627251 -37.502629 -0.810929 -0.018136 0.465504 0.170755
11.546983 86.991556 86.294230 13.993751 22.687111 -1.428524 -0.101280 7.611255 -0.825108 0.044094 -9.517549 -0.394469 0.030495 2.160241 -0.269778 -0.003326 9.925854 -0.078501 -2.133240 -4.827761 0.415562 -4.006963 -8.950941 0.919349 -4.684565 -7.361263 3.023923 -1.918810 -15.550162 54.108550 43.155463 -9.158692 8.921026 2.783350 3.208545 -4.467177 5.487551 -8.506509 -2.985851 15.192683 8.328944 -49.805888 -25.085208 7.348325 -14.783937 -6.944092 9.552888 -8.613946 -6.891774 -14.622438 -0.842641 -9.994629 66.636001 -1.315879 -14.150299 -0.774477 2.983051 -0.277536 1.095968 -0.818546 11.961156 -35.475819 -5.463470 -6.189855 57.197540 -5.301929 17.189499 -38.046651 -0.702195 -0.016932 0.410370 0.150548
11.670580 86.924201 86.999657 14.323043 22.691461 -1.378906 -0.288564 7.657842 -0.803239 -0.048354 -9.480674 -0.378085 -0.033361 2.178491 -0.271401 -0.021556 9.923903 -0.078637 -2.111266 -4.845915 0.432752 -3.967376 -8.984289 0.950490 -4.626031 -7.366754 3.068195 -1.820631 -15.358179 54.011721 42.136629 -8.969445 8.970077 2.437622 3.213435 -4.436723 5.347596 -8.656379 -3.137402 14.793960 7.638096 -49.969403 -25.606508 7.121548 -15.024283 -7.133234 9.426204 -8.432752 -7.524165 -15.717062 -1.007822 -9.883895 68.118678 -1.567859 -14.410865 -2.128153 2.719840 -0.214068 0.886854 -0.668082 12.003155 -34.814465 -5.403569 -5.916009 56.883053 -4.873741 16.730009 -38.540441 -0.603951 -0.014427 0.332448 0.121983
11.796568 86.869928 87.712479 14.638776 22.694588 -1.333427 -0.468657 7.700395 -0.775453 -0.138004 -9.446906 -0.359054 -0.095302 2.195162 -0.270754 -0.039138 9.922082 -0.078113 -2.085816 -4.860320 0.446551 -3.921033 -9.010820 0.974957 -4.568509 -7.369429 3.108596 -1.749655 -15.171224 53.919713 41.108871 -8.774030 9.032020 2.105751 3.217915 -4.391172 5.209183 -8.800317 -3.288465 14.382870 6.956616 -50.130793 -26.166171 6.890947 -15.268283 -7.315922 9.303117 -8.254027 -8.149249 -16.828195 -1.159548 -9.774045 69.517914 -1.838358 -14.660267 -3.454174 2.476064 -0.148372 0.647893 -0.492096 12.027847 -34.139735 -5.320471 -5.625692 56.528718 -4.446902 16.269554 -38.976918 -0.524825 -0.011011 0.243143 0.089230
11.925277 86.829455 88.435320 14.937178 22.695674 -1.292225 -0.638941 7.737923 -0.742232 -0.223545 -9.417109 -0.337695 -0.154420 2.209852 -0.267882 -0.055818 9.920467 -0.076949 -2.057005 -4.870104 0.457199 -3.868145 -9.028910 0.993179 -4.514745 -7.369042 3.143612 -1.713447 -14.987044 53.837184 40.092459 -8.581440 9.101180 1.799750 3.221533 -4.329908 5.072506 -8.934972 -3.435456 13.960109 6.296286 -50.287710 -26.767485 6.654062 -15.511702 -7.489184 9.185366 -8.084240 -8.747942 -17.951920 -1.298531 -9.689852 70.823466 -2.137266 -14.887629 -4.733995 2.253960 -0.088645 0.409514 -0.313470 12.037616 -33.450395 -5.217343 -5.349126 56.134889 -4.041416 15.829251 -39.349074 -0.473783 -0.007208 0.153856 0.056468
12.057039 86.803502 89.170805 15.214476 22.693906 -1.255450 -0.796809 7.769423 -0.704064 -0.303668 -9.392153 -0.314330 -0.209807 2.222158 -0.262835 -0.071343 9.919132 -0.075167 -2.024947 -4.874390 0.464938 -3.808928 -9.036922 1.005596 -4.467494 -7.365344 3.171739 -1.719514 -14.803419 53.768745 39.107557 -8.400784 9.172057 1.531576 3.223826 -4.252461 4.937749 -9.056957 -3.574836 13.526389 5.668882 -50.438157 -27.413785 6.408657 -15.750069 -7.649994 9.074131 -7.929996 -9.300868 -19.084333 -1.426182 -9.659792 72.025143 -2.478225 -15.082062 -5.949019 2.055087 -0.041229 0.201999 -0.155753 12.034769 -32.745159 -5.097362 -5.115041 55.702322 -3.675353 15.430433 -39.649972 -0.460038 -0.003647 0.075976 0.027883
12.192185 86.792790 89.921559 15.466890 22.688471 -1.223258 -0.939660 7.793884 -0.661443 -0.377069 -9.372908 -0.289282 -0.260558 2.231675 -0.255665 -0.085459 9.918153 -0.072791 -1.989760 -4.872301 0.470022 -3.743606 -9.033216 1.012664 -4.429518 -7.358091 3.191481 -1.775307 -14.618139 53.718939 38.174211 -8.241338 9.239391 1.313102 3.224247 -4.158438 4.805085 -9.162858 -3.703104 13.082442 5.086162 -50.580479 -28.108456 6.152742 -15.978648 -7.795307 8.970035 -7.798014 -9.788307 -20.221557 -1.544639 -9.716489 73.112768 -2.879114 -15.232685 -7.080595 1.880553 -0.010670 0.055490 -0.043072 12.021547 -32.022691 -4.963718 -4.950484 55.232081 -3.364617 15.094489 -39.872721 -0.492936 -0.001017 0.020894 0.007665
12.331047 86.798037 90.690208 15.690642 22.678555 -1.195804 -1.064901 7.810293 -0.614864 -0.442445 -9.360246 -0.262878 -0.305768 2.238000 -0.246425 -0.097914 9.917605 -0.069846 -1.951567 -4.862951 0.472710 -3.672414 -9.016140 1.014859 -4.403578 -7.347047 3.201339 -1.888223 -14.428971 53.692211 37.312354 -8.112572 9.298212 1.156110 3.222080 -4.047422 4.674672 -9.249228 -3.816791 12.629006 4.559854 -50.713357 -28.854913 5.884573 -16.192406 -7.922088 8.873171 -7.695118 -10.190131 -21.359730 -1.656794 -9.896721 74.076094 -3.362105 -15.328674 -8.110010 1.731296 -0.000000 -0.000000 -0.000000 12.000110 -31.281618 -4.819620 -4.880701 54.725383 -3.122795 14.842676 -40.010431 -0.581823 -0.000000 0.000000 -0.000000
12.473325 86.818877 91.470938 15.886184 22.667980 -1.177905 -1.172216 7.819330 -0.560034 -0.500127 -9.353679 -0.233071 -0.345663 2.241375 -0.233727 -0.108716 9.917464 -0.065935 -1.909420 -4.848535 0.472348 -3.593581 -8.989779 1.010948 -4.384897 -7.330093 3.198877 -2.066816 -14.248782 53.684352 36.490485 -7.985571 9.371548 1.055208 3.221351 -3.903872 4.544177 -9.319112 -3.921325 12.147849 4.083886 -50.846878 -29.671905 5.586482 -16.401978 -8.032100 8.776172 -7.616497 -10.524840 -22.520712 -1.759331 -10.202719 74.918630 -3.954108 -15.367830 -9.051580 1.601885 -0.000000 0.000000 0.000000 11.977197 -30.525225 -4.664504 -4.888011 54.183537 -2.933559 14.666915 -40.091581 -0.723258 -0.004217 0.068843 0.002423
12.618469 86.854290 92.257185 16.057928 22.660146 -1.172454 -1.264262 7.822489 -0.493700 -0.551760 -9.351974 -0.198222 -0.381379 2.242377 -0.216649 -0.118146 9.917625 -0.060787 -1.862597 -4.831382 0.468253 -3.505753 -8.958473 0.999664 -4.367455 -7.306124 3.184201 -2.308304 -14.088299 53.687564 35.667201 -7.829983 9.477585 0.993910 3.226530 -3.718737 4.412005 -9.378228 -4.024126 11.626911 3.641164 -50.989585 -30.567764 5.249395 -16.616397 -8.129704 8.673008 -7.551379 -10.826417 -23.722588 -1.847746 -10.600917 75.653560 -4.653053 -15.359681 -9.934601 1.485287 -0.000000 -0.000000 -0.000000 11.955734 -29.757074 -4.495533 -4.931366 53.606683 -2.768820 14.539167 -40.141844 -0.905498 -0.015261 0.250344 0.008727
12.766432 86.904020 93.050450 16.208028 22.653589 -1.176733 -1.342917 7.819971 -0.417926 -0.598021 -9.354882 -0.159265 -0.413380 2.241107 -0.195942 -0.126366 9.918046 -0.054616 -1.811565 -4.810812 0.460653 -3.409808 -8.920935 0.981463 -4.352156 -7.276439 3.159626 -2.603050 -13.942036 53.700840 34.847379 -7.653728 9.604730 0.967230 3.237087 -3.501192 4.279392 -9.427106 -4.124741 11.076097 3.226907 -51.138183 -31.530337 4.884805 -16.828640 -8.215783 8.565385 -7.497828 -11.097514 -24.955869 -1.923783 -11.072643 76.285164 -5.435971 -15.311202 -10.762791 1.380441 0.000000 -0.000000 0.000000 11.932113 -28.976147 -4.312578 -4.999853 52.994263 -2.623079 14.450283 -40.150087 -1.125149 -0.030645 0.506965 0.017486
